<?xml version="1.0" encoding="UTF-8"?>
<svg width="24px" height="24px" viewBox="0 0 24 24" version="1.1" xmlns="http://www.w3.org/2000/svg" xmlns:xlink="http://www.w3.org/1999/xlink" style="background: #FFFFFF;">
    <title>Help</title>
    <defs>
        <path d="M20.4852656,3.51473437 C18.2187656,1.24823438 15.2053125,0 12,0 C8.7946875,0 5.78123438,1.24828125 3.51473437,3.51473437 C1.24823437,5.7811875 0,8.7946875 0,12 C0,15.2053125 1.24823438,18.2187656 3.51473437,20.4852656 C5.7811875,22.7517656 8.7946875,24 12,24 C15.2053125,24 18.2187656,22.7517656 20.4852656,20.4852656 C22.7517656,18.2187656 24,15.2053125 24,12 C24,8.7946875 22.7517656,5.7811875 20.4852656,3.51473437 Z M12,2 C17.5139865,2 22,6.48601353 22,12 C22,17.5139865 17.5139865,22 12,22 C6.48601353,22 2,17.5139865 2,12 C2,6.48601353 6.48601353,2 12,2 Z M12.000243,16 C11.4482717,16 11,16.4477177 11,16.9999089 C11,17.5521001 11.4482717,18 12.000243,18 C12.5527003,18 13,17.5521001 13,16.9999089 C13,16.4477177 12.5527003,16 12.000243,16 Z M11.9997492,5 C9.79411534,5 8,6.65150746 8,8.68166813 C8,9.09968143 8.36812816,9.43857057 8.82222187,9.43857057 C9.27656639,9.43857057 9.64469456,9.09962371 9.64469456,8.68166813 C9.64469456,7.48643751 10.7011114,6.5138626 11.9997492,6.5138626 C13.2988886,6.5138626 14.3552427,7.48643751 14.3552427,8.68166813 C14.3552427,9.8771296 13.2987632,10.8497045 11.9997492,10.8497045 C11.5456555,10.8497045 11.1775273,11.1886514 11.1775273,11.6065492 L11.1775273,14.2430976 C11.1775273,14.6611109 11.5456555,15 11.9997492,15 C12.4538429,15 12.8222219,14.6611109 12.8222219,14.2430976 L12.8222219,12.284443 C14.6346464,11.934473 16,10.4522947 16,8.68161042 C16,6.65150746 14.2056338,5 11.9997492,5 Z" id="path-1"></path>
        <rect id="path-3" x="0" y="0" width="24" height="24"></rect>
    </defs>
    <g id="Help" stroke="none" stroke-width="1" fill="none" fill-rule="evenodd">
        <rect fill="#FFFFFF" x="0" y="0" width="24" height="24"></rect>
        <mask id="mask-2" fill="white">
            <use xlink:href="#path-1"></use>
        </mask>
        <g id="Combined-Shape" fill-rule="nonzero"></g>
        <g id="Group" mask="url(#mask-2)">
            <g id="â†³ðŸŽ¨Color">
                <mask id="mask-4" fill="white">
                    <use xlink:href="#path-3"></use>
                </mask>
                <use id="Rectangular" fill-opacity="0.326935028" fill="#000000" xlink:href="#path-3"></use>
                <g id="Group" mask="url(#mask-4)" opacity="0.100000001">
                    <g id="â†³âš™ï¸State">
                        <rect id="Rectangular" x="0" y="0" width="24" height="24"></rect>
                    </g>
                </g>
            </g>
        </g>
    </g>
</svg>