<?xml version="1.0" encoding="UTF-8"?>
<svg width="148px" height="148px" viewBox="0 0 148 148" version="1.1" xmlns="http://www.w3.org/2000/svg" xmlns:xlink="http://www.w3.org/1999/xlink">
    <title>Artboard</title>
    <defs>
        <circle id="path-1" cx="74" cy="74" r="74"></circle>
        <filter x="-4.1%" y="-4.1%" width="108.1%" height="108.1%" filterUnits="objectBoundingBox" id="filter-2">
            <feOffset dx="0" dy="0" in="SourceAlpha" result="shadowOffsetOuter1"></feOffset>
            <feGaussianBlur stdDeviation="2" in="shadowOffsetOuter1" result="shadowBlurOuter1"></feGaussianBlur>
            <feColorMatrix values="0 0 0 0 0   0 0 0 0 0   0 0 0 0 0  0 0 0 0.5 0" type="matrix" in="shadowBlurOuter1"></feColorMatrix>
        </filter>
    </defs>
    <g id="Artboard" stroke="none" stroke-width="1" fill="none" fill-rule="evenodd">
        <g id="Oval">
            <use fill="black" fill-opacity="1" filter="url(#filter-2)" xlink:href="#path-1"></use>
            <use fill="#232121" fill-rule="evenodd" xlink:href="#path-1"></use>
        </g>
        <g id="Candles" transform="translate(35.000000, 25.000000)">
            <rect id="Rectangle" fill="#8AC872" x="3" y="88" width="2" height="11"></rect>
            <rect id="Rectangle" fill="#8AC872" x="13" y="54" width="2" height="8"></rect>
            <rect id="Rectangle" fill="#8AC872" x="23" y="18" width="2" height="6"></rect>
            <rect id="Rectangle" fill="#C45B5B" x="33" y="9" width="2" height="15"></rect>
            <rect id="Rectangle" fill="#C45B5B" x="33" y="45" width="2" height="3"></rect>
            <rect id="Rectangle" fill="#C45B5B" x="43" y="60" width="2" height="3"></rect>
            <rect id="Rectangle" fill="#8AC872" x="53" y="60" width="2" height="3"></rect>
            <rect id="Rectangle" fill="#8AC872" x="63" y="40" width="2" height="10"></rect>
            <rect id="Rectangle" fill="#8AC872" x="73" y="24" width="2" height="4"></rect>
            <rect id="Rectangle" fill="#8AC872" x="0" y="54" width="8" height="34"></rect>
            <rect id="Rectangle" fill="#8AC872" x="10" y="36" width="8" height="18"></rect>
            <rect id="Rectangle" fill="#8AC872" x="20" y="24" width="8" height="12"></rect>
            <rect id="Rectangle" fill="#C45B5B" x="30" y="24" width="8" height="21"></rect>
            <rect id="Rectangle" fill="#C45B5B" x="40" y="45" width="8" height="15"></rect>
            <rect id="Rectangle" fill="#8AC872" transform="translate(54.000000, 49.500000) scale(1, -1) translate(-54.000000, -49.500000) " x="50" y="39" width="8" height="21"></rect>
            <rect id="Rectangle" fill="#8AC872" transform="translate(64.000000, 32.000000) scale(1, -1) translate(-64.000000, -32.000000) " x="60" y="23" width="8" height="18"></rect>
            <rect id="Rectangle" fill="#8AC872" transform="translate(74.000000, 12.000000) scale(1, -1) translate(-74.000000, -12.000000) " x="70" y="0" width="8" height="24"></rect>
        </g>
    </g>
</svg>